<svg xmlns="http://www.w3.org/2000/svg" width="512" height="512" viewBox="0 0 24 24" fill="none">

  <defs>
    <linearGradient id="brandGrad" x1="2" y1="2" x2="22" y2="22" gradientUnits="userSpaceOnUse">
      <stop offset="0%" stop-color="#D9B6E2"/>
      <stop offset="52%" stop-color="#CBA6DA"/>
      <stop offset="100%" stop-color="#89B4FA"/>
    </linearGradient>
    <radialGradient id="shine" cx="0" cy="0" r="1" gradientUnits="userSpaceOnUse"
      gradientTransform="translate(6 4) rotate(45) scale(17 13)">
      <stop offset="0%" stop-color="#FFFFFF" stop-opacity="0.35"/>
      <stop offset="100%" stop-color="#FFFFFF" stop-opacity="0"/>
    </radialGradient>
  </defs>


  <g transform="translate(0,0) scale(1.000000)">
    <rect x="0.75" y="0.75" width="22.5" height="22.5" rx="6.75" fill="url(#brandGrad)"/>
    <rect x="0.75" y="0.75" width="22.5" height="22.5" rx="6.75" fill="url(#shine)"/>
    <rect x="1.15" y="1.15" width="21.7" height="21.7" rx="6.35" fill="none" stroke="#FFFFFF" stroke-opacity="0.22" stroke-width="0.8"/>
    <rect x="3.8" y="4.1" width="16.2" height="15.8" rx="5.0" fill="#FFFFFF" fill-opacity="0.10" stroke="#FFFFFF" stroke-opacity="0.16" stroke-width="0.6"/>
    <polygon points="8.200,4.550 9.650,7.650 12.750,9.100 9.650,10.550 8.200,13.650 6.750,10.550 3.650,9.100 6.750,7.650" fill="#11111B"/>
    <rect x="12.3" y="7.1" width="4.5" height="1.45" rx="0.72" fill="#11111B" fill-opacity="0.42"/>
    <rect x="12.3" y="9.8" width="5.8" height="1.45" rx="0.72" fill="#11111B" fill-opacity="0.42"/>
    <rect x="6.2" y="14.15" width="11.9" height="1.55" rx="0.78" fill="#11111B" fill-opacity="0.22"/>
  </g>

</svg>