<svg xmlns="http://www.w3.org/2000/svg" width="178" height="32" viewBox="0 0 178 32" fill="none">

  <defs>
    <linearGradient id="brandGrad" x1="2" y1="2" x2="22" y2="22" gradientUnits="userSpaceOnUse">
      <stop offset="0%" stop-color="#D9B6E2"/>
      <stop offset="52%" stop-color="#CBA6DA"/>
      <stop offset="100%" stop-color="#89B4FA"/>
    </linearGradient>
    <radialGradient id="shine" cx="0" cy="0" r="1" gradientUnits="userSpaceOnUse"
      gradientTransform="translate(6 4) rotate(45) scale(17 13)">
      <stop offset="0%" stop-color="#FFFFFF" stop-opacity="0.35"/>
      <stop offset="100%" stop-color="#FFFFFF" stop-opacity="0"/>
    </radialGradient>
    <filter id="markGlow" x="-45%" y="-45%" width="190%" height="190%">
      <feDropShadow dx="0" dy="2" stdDeviation="2.4" flood-color="#CBA6DA" flood-opacity="0.22"/>
    </filter>

  </defs>


  <g transform="translate(0,4) scale(1.000000)" filter="url(#markGlow)">
    <rect x="0.75" y="0.75" width="22.5" height="22.5" rx="6.75" fill="url(#brandGrad)"/>
    <rect x="0.75" y="0.75" width="22.5" height="22.5" rx="6.75" fill="url(#shine)"/>
    <rect x="1.15" y="1.15" width="21.7" height="21.7" rx="6.35" fill="none" stroke="#FFFFFF" stroke-opacity="0.22" stroke-width="0.8"/>
    <rect x="3.8" y="4.1" width="16.2" height="15.8" rx="5.0" fill="#FFFFFF" fill-opacity="0.10" stroke="#FFFFFF" stroke-opacity="0.16" stroke-width="0.6"/>
    <polygon points="8.200,4.550 9.650,7.650 12.750,9.100 9.650,10.550 8.200,13.650 6.750,10.550 3.650,9.100 6.750,7.650" fill="#11111B"/>
    <rect x="12.3" y="7.1" width="4.5" height="1.45" rx="0.72" fill="#11111B" fill-opacity="0.42"/>
    <rect x="12.3" y="9.8" width="5.8" height="1.45" rx="0.72" fill="#11111B" fill-opacity="0.42"/>
    <rect x="6.2" y="14.15" width="11.9" height="1.55" rx="0.78" fill="#11111B" fill-opacity="0.22"/>
  </g>

  <g transform="translate(0,20.8) scale(1,-1)">
    <path d="M0.970,0.000 L9.055,0.000 L9.055,1.790 L3.033,1.790 L3.033,5.032 L8.603,5.032 L8.603,6.790 L3.033,6.790 L3.033,9.853 L9.055,9.853 L9.055,11.640 L0.970,11.640 L0.970,0.000 Z M9.681,0.000 L11.898,0.000 L12.851,2.783 L17.368,2.783 L18.298,0.000 L20.571,0.000 L16.431,11.640 L13.836,11.640 L9.681,0.000 Z M13.431,4.478 L13.993,6.117 C14.343,7.188 14.696,8.305 15.133,9.773 C15.571,8.305 15.913,7.188 16.258,6.117 L16.806,4.478 L13.431,4.478 Z" transform="translate(35.030,0)" fill="#DCE3FF" fill-opacity="0.92"/>
    <circle cx="59.801" cy="5.70" r="1.35" fill="#CBA6DA" fill-opacity="0.78"/>
    <path d="M4.760,0.000 C8.079,0.000 10.005,2.058 10.005,5.470 C10.005,8.862 8.079,10.912 4.863,10.912 L1.209,10.912 L1.209,0.000 L4.760,0.000 Z M2.878,1.465 L2.878,9.448 L4.753,9.448 C7.134,9.448 8.365,8.034 8.365,5.470 C8.365,2.885 7.134,1.465 4.666,1.465 L2.878,1.465 Z M14.203,-0.183 C15.527,-0.183 16.305,0.483 16.619,1.120 L16.699,1.120 L16.699,0.000 L18.260,0.000 L18.260,5.435 C18.260,7.800 16.378,8.292 15.058,8.292 C13.600,8.292 12.224,7.720 11.667,6.255 L13.183,5.859 C13.410,6.417 14.010,6.980 15.081,6.980 C16.106,6.980 16.647,6.452 16.647,5.545 L16.647,5.501 C16.647,4.922 16.026,4.929 14.582,4.760 C13.038,4.584 11.432,4.174 11.432,2.316 C11.432,0.703 12.642,-0.183 14.203,-0.183 Z M14.561,1.113 C13.659,1.113 13.014,1.516 13.014,2.292 C13.014,3.136 13.762,3.443 14.671,3.567 C15.168,3.633 16.413,3.764 16.656,3.998 L16.656,2.951 C16.656,1.992 15.871,1.113 14.561,1.113 Z M23.365,-0.169 C25.364,-0.169 26.740,0.886 26.740,2.381 C26.740,3.516 26.023,4.249 24.507,4.591 L23.189,4.884 C22.287,5.091 21.921,5.412 21.921,5.955 C21.921,6.570 22.596,7.017 23.482,7.017 C24.448,7.017 24.910,6.504 25.123,5.932 L26.564,6.248 C26.213,7.462 25.240,8.292 23.466,8.292 C21.614,8.292 20.295,7.317 20.295,5.852 C20.295,4.680 21.028,3.933 22.552,3.588 L23.928,3.274 C24.706,3.098 25.078,2.761 25.078,2.241 C25.078,1.634 24.420,1.134 23.379,1.134 C22.428,1.134 21.804,1.530 21.577,2.388 L20.060,2.072 C20.353,0.623 21.584,-0.169 23.365,-0.169 Z M30.117,4.849 C30.117,6.145 30.923,6.886 32.023,6.886 C33.091,6.886 33.750,6.183 33.750,5.002 L33.750,0.000 L35.370,0.000 L35.370,5.201 C35.370,7.221 34.249,8.292 32.578,8.292 C31.458,8.292 30.616,7.800 30.103,6.717 L30.103,10.912 L28.507,10.912 L28.507,0.000 L30.117,0.000 L30.117,4.849 Z M41.595,-0.162 C43.587,-0.162 45.014,1.427 45.014,4.073 C45.014,6.738 43.556,8.292 41.595,8.292 C40.064,8.292 39.513,7.362 39.230,6.855 L39.141,6.855 L39.141,10.912 L37.530,10.912 L37.530,0.000 L39.096,0.000 L39.096,1.282 L39.230,1.282 C39.513,0.762 40.109,-0.162 41.595,-0.162 Z M41.236,1.209 C39.874,1.209 39.112,2.381 39.112,4.087 C39.112,5.787 39.851,6.921 41.236,6.921 C42.656,6.921 43.366,5.698 43.366,4.087 C43.366,2.461 42.635,1.209 41.236,1.209 Z M50.244,-0.169 C52.552,-0.169 54.076,1.523 54.076,4.050 C54.076,6.600 52.552,8.292 50.244,8.292 C47.937,8.292 46.421,6.600 46.421,4.050 C46.421,1.523 47.937,-0.169 50.244,-0.169 Z M50.244,1.193 C48.765,1.193 48.062,2.498 48.062,4.050 C48.062,5.625 48.765,6.928 50.244,6.928 C51.739,6.928 52.442,5.618 52.442,4.050 C52.442,2.498 51.739,1.193 50.244,1.193 Z M58.155,-0.183 C59.479,-0.183 60.258,0.483 60.572,1.120 L60.651,1.120 L60.651,0.000 L62.212,0.000 L62.212,5.435 C62.212,7.800 60.330,8.292 59.011,8.292 C57.553,8.292 56.177,7.720 55.619,6.255 L57.136,5.859 C57.363,6.417 57.963,6.980 59.034,6.980 C60.058,6.980 60.600,6.452 60.600,5.545 L60.600,5.501 C60.600,4.922 59.979,4.929 58.535,4.760 C56.990,4.584 55.385,4.174 55.385,2.316 C55.385,0.703 56.594,-0.183 58.155,-0.183 Z M58.514,1.113 C57.611,1.113 56.967,1.516 56.967,2.292 C56.967,3.136 57.715,3.443 58.624,3.567 C59.121,3.633 60.365,3.764 60.609,3.998 L60.609,2.951 C60.609,1.992 59.824,1.113 58.514,1.113 Z M64.381,0.000 L65.991,0.000 L65.991,4.973 C65.991,6.049 66.812,6.811 67.939,6.811 C68.276,6.811 68.665,6.752 68.783,6.724 L68.783,8.262 C68.614,8.283 68.307,8.306 68.101,8.306 C67.142,8.306 66.329,7.765 66.029,6.870 L65.940,6.870 L65.940,8.189 L64.381,8.189 L64.381,0.000 Z M73.229,-0.162 C74.708,-0.162 75.301,0.762 75.587,1.282 L75.718,1.282 L75.718,0.000 L77.286,0.000 L77.286,10.912 L75.673,10.912 L75.673,6.855 L75.587,6.855 C75.308,7.362 74.752,8.292 73.229,8.292 C71.258,8.292 69.800,6.738 69.800,4.073 C69.800,1.427 71.237,-0.162 73.229,-0.162 Z M73.580,1.209 C72.181,1.209 71.447,2.461 71.447,4.087 C71.447,5.698 72.158,6.921 73.580,6.921 C74.963,6.921 75.704,5.787 75.704,4.087 C75.704,2.381 74.949,1.209 73.580,1.209 Z" transform="translate(64.191,0)" fill="#CDD6F4" fill-opacity="0.74"/>
  </g>
</svg>